HIERARCHY
ROOT root
{
	OFFSET 0.000000 0.000000 0.000000
	CHANNELS 6 Xposition Yposition Zposition Zrotation Yrotation Xrotation
	JOINT lhip
	{
		OFFSET 0.058581 -0.082280 -0.017664
		CHANNELS 3 Zrotation Yrotation Xrotation
		JOINT lknee
		{
			OFFSET 0.043451 -0.386469 0.008037
			CHANNELS 3 Zrotation Yrotation Xrotation
			JOINT lankle
			{
				OFFSET -0.014790 -0.426874 -0.037428
				CHANNELS 3 Zrotation Yrotation Xrotation
				JOINT ltoe
				{
					OFFSET 0.041054 -0.060286 0.122042
					CHANNELS 3 Zrotation Yrotation Xrotation
					End Site
					{
						OFFSET 0.000000 0.000000 0.000000
					}
				}
			}
		}
	}
	JOINT rhip
	{
		OFFSET -0.060310 -0.090513 -0.013543
		CHANNELS 3 Zrotation Yrotation Xrotation
		JOINT rknee
		{
			OFFSET -0.043257 -0.383688 -0.004843
			CHANNELS 3 Zrotation Yrotation Xrotation
			JOINT rankle
			{
				OFFSET 0.019056 -0.420046 -0.034562
				CHANNELS 3 Zrotation Yrotation Xrotation
				JOINT rtoe
				{
					OFFSET -0.034840 -0.062106 0.130323
					CHANNELS 3 Zrotation Yrotation Xrotation
					End Site
					{
						OFFSET 0.000000 0.000000 0.000000
					}
				}
			}
		}
	}
	JOINT lowerback
	{
		OFFSET 0.004439 0.124404 -0.038385
		CHANNELS 3 Zrotation Yrotation Xrotation
		JOINT upperback
		{
			OFFSET 0.004488 0.137956 0.026820
			CHANNELS 3 Zrotation Yrotation Xrotation
			JOINT chest
			{
				OFFSET -0.002265 0.056032 0.002855
				CHANNELS 3 Zrotation Yrotation Xrotation
				JOINT lowerneck
				{
					OFFSET -0.013390 0.211636 -0.033468
					CHANNELS 3 Zrotation Yrotation Xrotation
					JOINT upperneck
					{
						OFFSET 0.010113 0.088937 0.050410
						CHANNELS 3 Zrotation Yrotation Xrotation
						End Site
						{
							OFFSET 0.000000 0.000000 0.000000
						}
					}
				}
				JOINT lclavicle
				{
					OFFSET 0.071702 0.114000 -0.018898
					CHANNELS 3 Zrotation Yrotation Xrotation
					JOINT lshoulder
					{
						OFFSET 0.122921 0.045205 -0.019046
						CHANNELS 3 Zrotation Yrotation Xrotation
						JOINT lelbow
						{
							OFFSET 0.255332 -0.015649 -0.022946
							CHANNELS 3 Zrotation Yrotation Xrotation
							JOINT lwrist
							{
								OFFSET 0.265709 0.012698 -0.007375
								CHANNELS 3 Zrotation Yrotation Xrotation
								End Site
								{
									OFFSET 0.000000 0.000000 0.000000
								}
							}
						}
					}
				}
				JOINT rclavicle
				{
					OFFSET -0.082954 0.112472 -0.023707
					CHANNELS 3 Zrotation Yrotation Xrotation
					JOINT rshoulder
					{
						OFFSET -0.113228 0.046853 -0.008472
						CHANNELS 3 Zrotation Yrotation Xrotation
						JOINT relbow
						{
							OFFSET -0.260127 -0.014369 -0.031269
							CHANNELS 3 Zrotation Yrotation Xrotation
							JOINT rwrist
							{
								OFFSET -0.269108 0.006794 -0.006027
								CHANNELS 3 Zrotation Yrotation Xrotation
								End Site
								{
									OFFSET 0.000000 0.000000 0.000000
								}
							}
						}
					}
				}
			}
		}
	}
}
MOTION
Frames: 14
Frame Time: 0.033333
-0.059041 0.191128 0.994985 -84.087427 -3.631111 101.989066 -11.708385 -3.247448 -9.494389 -4.753778 10.619654 -8.790009 15.769667 32.459456 -18.073346 0.000000 -0.000000 0.000000 0.719695 -3.861973 -7.690504 3.971354 -14.068227 35.925026 6.963478 -15.105530 44.881696 0.000000 -0.000000 0.000000 -9.228739 3.957992 -10.920792 5.971733 -1.865645 14.800687 -1.616115 0.710974 -10.912138 4.479903 -9.669245 17.891440 5.127208 2.796770 0.163948 -19.912609 11.128966 -0.295999 -58.972772 0.154684 16.612816 11.577026 -19.686081 -4.300559 15.128060 -4.009260 5.550039 16.098690 -8.779647 -6.518821 60.282805 -0.788748 17.290236 -1.368956 -2.527528 2.963978 -21.923290 4.553223 0.707371 
-0.058971 0.190660 0.995239 -84.363509 -3.494097 101.888825 -11.622625 -3.159689 -9.340347 -4.751637 10.772531 -8.908768 15.936837 32.619617 -17.919559 0.000000 -0.000000 0.000000 0.683334 -3.992453 -7.572197 3.891706 -14.197939 35.912269 6.604922 -15.251273 45.188978 0.000000 -0.000000 0.000000 -9.205190 4.057331 -11.207208 6.054900 -1.896035 15.413451 -1.579912 0.864931 -10.985510 4.535030 -9.411232 17.219832 4.944022 3.160072 0.156451 -19.996667 10.259960 0.093386 -60.032402 0.492367 17.525216 11.143682 -18.893994 -1.670825 13.455500 -2.385687 6.953368 16.201709 -8.621058 -6.535403 61.252131 -0.684782 16.650584 -1.706568 -3.647984 1.092479 -20.153830 2.664459 0.002859 
-0.058333 0.190667 0.995867 -84.793477 -3.275244 102.089875 -11.451473 -2.962942 -9.613987 -4.762460 10.999784 -8.812828 16.382873 32.319244 -17.424575 0.000000 -0.000000 0.000000 0.744352 -4.038314 -7.943652 3.939703 -14.127546 36.007482 6.081702 -15.012074 45.655829 0.000000 -0.000000 0.000000 -9.129005 4.137991 -11.698314 6.092091 -1.832482 15.992016 -1.526123 0.969860 -11.189692 4.754504 -8.936070 16.754940 4.797987 3.414939 -0.083959 -20.163921 9.677331 0.073387 -60.786840 1.133163 18.217825 11.018264 -18.243814 -0.258515 11.257843 -1.463332 7.829077 16.253903 -8.366191 -6.527505 61.901646 -0.238473 16.160144 -1.418433 -5.371064 -1.533885 -17.651725 1.661153 -1.523185 
-0.057480 0.190804 0.996107 -85.085452 -3.182409 101.893580 -11.376322 -2.882289 -9.530065 -4.773014 11.166324 -8.780388 16.500733 32.643973 -17.572522 0.000000 -0.000000 0.000000 0.670313 -4.199384 -7.825869 3.874890 -14.338382 36.048950 5.663263 -15.187217 46.057904 0.000000 -0.000000 0.000000 -9.098292 4.293377 -11.551353 6.066939 -1.817315 16.366009 -1.660729 1.110924 -11.254053 5.208333 -8.853772 16.096486 4.704783 3.301025 0.234466 -19.957696 9.579425 0.198642 -61.243933 0.814769 18.596217 10.300475 -17.794415 0.286926 8.382638 0.828222 8.209997 16.360093 -7.892432 -6.468461 62.624214 0.096308 16.438421 -1.288858 -6.401293 -3.866700 -14.213262 -0.750074 -2.919665 
-0.056321 0.191241 0.996287 -85.233167 -2.966408 101.840503 -11.121783 -3.016597 -9.753149 -4.691510 11.435360 -8.472562 16.517613 32.699370 -17.567854 0.000000 -0.000000 0.000000 0.904352 -4.092743 -7.917048 3.905601 -14.366631 36.200922 5.347657 -15.188317 45.711847 0.000000 -0.000000 0.000000 -9.084116 4.296564 -11.371945 6.106857 -1.889728 16.440906 -1.579280 1.323854 -11.150859 5.199570 -8.641647 15.763986 4.860592 3.460813 -0.056267 -19.963723 9.610763 0.369662 -61.282221 0.034390 17.888510 9.396636 -17.222801 -2.306720 3.844151 2.863453 6.081780 16.574268 -7.513328 -6.190050 62.933620 0.564806 16.576125 -1.224160 -7.051564 -4.650970 -10.016976 -2.581688 -2.582032 
-0.055592 0.191809 0.996809 -85.420783 -2.810976 101.865244 -10.875479 -3.160365 -9.826216 -4.753129 11.777451 -8.521278 16.802114 32.657965 -17.256819 0.000000 -0.000000 0.000000 1.070718 -4.060852 -8.038828 3.846392 -14.516711 36.249076 5.080039 -15.226584 45.501488 0.000000 -0.000000 0.000000 -9.046193 4.395756 -10.962075 6.034181 -1.914015 15.991306 -1.593617 1.251864 -11.254209 5.339734 -8.654143 15.877355 4.826536 3.344196 0.277204 -19.596764 9.510436 0.454799 -61.378174 -0.123366 17.106848 9.364435 -16.343780 -6.630051 -2.337154 4.634500 2.615370 16.546497 -7.443012 -6.209810 63.490685 0.308357 17.232776 -1.581672 -6.733940 -3.734354 -5.187200 -4.869992 -2.683446 
-0.055398 0.192247 0.996848 -85.537515 -2.707419 101.715059 -10.737838 -3.083132 -9.693873 -4.794777 11.896102 -8.542524 16.826553 32.651854 -17.041534 0.000000 -0.000000 0.000000 1.184475 -4.013849 -7.929802 3.638018 -14.787544 36.213671 4.728324 -15.428000 46.065190 0.000000 -0.000000 0.000000 -9.089606 4.389187 -10.767432 6.008732 -1.922957 15.826430 -1.523942 1.234170 -11.150946 5.340253 -8.600899 16.023692 4.844820 3.551305 0.501988 -19.457597 9.191451 1.012052 -61.312947 -0.507215 16.425775 9.749219 -16.003702 -7.791504 -6.984528 6.642116 1.960057 16.272379 -7.403839 -5.410094 63.914023 0.777161 16.935302 -1.817465 -5.927880 -1.770478 -1.137612 -6.851164 -1.788804 
-0.055273 0.192663 0.996676 -85.600565 -2.680473 101.667991 -10.640350 -3.084435 -9.677381 -4.896693 12.111417 -8.495059 16.959983 32.547620 -17.111917 0.000000 -0.000000 0.000000 1.203809 -3.940594 -7.967228 3.703158 -14.791244 36.299360 4.761589 -15.503801 45.853874 0.000000 -0.000000 0.000000 -9.175498 4.343181 -10.440428 5.947931 -1.872708 15.357288 -1.493595 1.201073 -11.226822 5.441807 -8.585133 16.230536 4.899650 3.428622 1.118908 -19.042450 9.208136 1.040323 -61.283878 -0.787277 16.467235 10.097565 -15.277993 -7.864321 -12.185478 7.842259 1.480613 16.085517 -7.286299 -5.233785 64.112496 0.588377 17.566827 -1.966303 -5.403232 -0.577363 3.921197 -8.131175 -2.231039 
-0.054832 0.193099 0.996413 -85.562048 -2.717722 101.662354 -10.638510 -3.146371 -9.666699 -4.949978 12.249005 -8.594032 17.145797 32.401921 -16.954078 0.000000 -0.000000 0.000000 1.175564 -3.979933 -8.034514 3.793614 -14.733613 36.323320 4.543352 -15.594426 46.076382 0.000000 -0.000000 0.000000 -9.328845 4.333913 -10.270752 5.881282 -1.936029 15.257353 -1.509558 1.169319 -11.360786 5.549056 -8.547276 16.035985 5.004365 3.199738 1.738834 -18.717842 9.058493 1.126162 -60.927807 -1.334029 16.287400 10.044048 -14.647013 -8.047331 -17.092912 9.355131 1.421798 16.036415 -7.176944 -5.293881 64.068037 0.541183 18.044683 -1.971998 -4.856103 0.196413 8.991864 -9.438286 -2.626858 
-0.054546 0.193482 0.996328 -85.389003 -2.674393 101.700301 -10.488097 -3.154009 -9.706302 -5.110675 12.316445 -8.630652 17.252377 32.167197 -16.938396 0.000000 -0.000000 0.000000 1.291454 -3.934114 -8.106592 3.828753 -14.753714 36.238412 4.584096 -15.620682 46.365096 0.000000 -0.000000 0.000000 -9.386780 4.249697 -10.344973 5.848495 -2.088521 15.107994 -1.492513 0.982220 -11.295375 5.638163 -8.413276 16.039901 5.046946 3.115019 2.346473 -18.357111 8.785040 1.219044 -60.570630 -1.333184 16.099111 10.111394 -14.811413 -8.832502 -21.861293 10.605087 0.935525 16.014017 -6.638685 -5.012721 63.809441 0.785989 18.489188 -1.853096 -4.826574 0.749165 13.798129 -11.005576 -2.997546 
-0.054252 0.193770 0.996317 -85.216396 -2.649484 101.678429 -10.392356 -3.113866 -9.739921 -5.194042 12.529536 -8.566618 17.073522 31.873297 -17.208803 0.000000 -0.000000 0.000000 1.353804 -3.956827 -8.006805 3.983006 -14.605472 36.149825 4.779709 -15.435317 46.084368 0.000000 -0.000000 0.000000 -9.360749 4.180211 -9.953179 5.726185 -2.095404 14.652357 -1.471574 0.904097 -11.398827 5.573989 -8.306360 16.302745 5.149622 2.881522 2.319563 -18.144737 8.741372 1.086628 -60.162542 -1.606407 16.232263 10.190386 -14.369902 -8.129389 -26.009845 10.790256 1.247477 16.000025 -6.617356 -4.919000 63.438483 0.836636 18.611117 -1.887186 -4.463922 1.546828 17.863757 -11.351633 -2.838879 
-0.054450 0.193868 0.996326 -84.891134 -2.637227 101.672447 -10.309871 -3.192768 -9.673972 -5.263086 12.328818 -8.640921 17.156538 31.772140 -17.162974 0.000000 -0.000000 0.000000 1.454611 -4.137167 -7.839347 4.136601 -14.573331 35.837397 4.713973 -15.436480 46.154544 0.000000 -0.000000 0.000000 -9.437673 4.146201 -10.056254 5.730754 -2.293791 14.918884 -1.421152 0.797977 -11.651974 5.399257 -8.449915 16.390893 5.233621 2.875724 2.491273 -18.078718 8.452748 1.276688 -59.633608 -1.861097 16.008321 10.123491 -14.558161 -7.511850 -29.927594 11.623045 1.529226 15.971378 -6.298363 -4.910342 62.976372 0.792686 18.675995 -1.756747 -4.094100 2.071610 22.018007 -11.856493 -2.801862 
-0.054896 0.193785 0.996384 -84.697103 -2.653816 101.618257 -10.284258 -3.018577 -9.465805 -5.439894 12.226637 -8.862018 17.052922 31.454167 -17.320997 0.000000 -0.000000 0.000000 1.441840 -4.299905 -7.692289 4.214422 -14.658124 35.680568 4.647748 -15.237390 46.152478 0.000000 -0.000000 0.000000 -9.504905 4.138660 -10.195919 5.691244 -2.338552 15.267740 -1.310985 0.701187 -12.085314 5.250252 -8.289870 16.753475 4.902228 3.275636 2.469641 -18.170815 8.063008 1.614422 -59.047014 -2.055467 15.615625 9.967131 -14.870804 -6.771846 -33.290181 12.211478 2.749156 15.723502 -5.941053 -4.409979 62.603499 1.003451 18.272064 -1.531848 -3.721787 2.412607 26.114603 -11.703764 -2.344995 
-0.054669 0.193942 0.996433 -84.610432 -2.689672 101.689341 -10.288462 -3.047186 -9.535261 -5.518746 12.322962 -8.938288 17.017654 31.255855 -17.330602 0.000000 -0.000000 0.000000 1.409716 -4.430482 -7.809793 4.125416 -14.859909 35.749073 4.609621 -15.110410 45.942475 0.000000 -0.000000 0.000000 -9.538224 4.146682 -10.003404 5.590698 -2.349829 15.240855 -1.272954 0.665196 -12.620266 5.177493 -8.151727 16.905727 4.841604 3.383834 2.663484 -18.327332 8.084684 1.571588 -58.383690 -2.069341 15.603990 9.746044 -15.346705 -5.942968 -36.364117 12.665765 4.601846 15.935310 -5.936436 -4.105361 61.749579 1.129018 17.813089 -0.934812 -3.654907 2.216753 30.388384 -11.447513 -1.616698 
